<svg id="calendar" xmlns="http://www.w3.org/2000/svg" width="24.46" height="24.46" viewBox="0 0 24.46 24.46">
  <g id="Group_29" data-name="Group 29">
    <g id="Group_28" data-name="Group 28">
      <ellipse id="Ellipse_2" data-name="Ellipse 2" cx="1" cy="0.5" rx="1" ry="0.5" transform="translate(17.46 9.46)" fill="#f71735"/>
      <path id="Path_88" data-name="Path 88" d="M20.638,1.911H19.4V.955a.955.955,0,0,0-1.911,0v.955H13.138V.955a.955.955,0,1,0-1.911,0v.955h-4.3V.955a.955.955,0,1,0-1.911,0v.955H3.822A3.826,3.826,0,0,0,0,5.733V20.638A3.826,3.826,0,0,0,3.822,24.46h7.309a.955.955,0,0,0,0-1.911H3.822a1.913,1.913,0,0,1-1.911-1.911V5.733A1.913,1.913,0,0,1,3.822,3.822H5.016v.955a.955.955,0,0,0,1.911,0V3.822h4.3v.955a.955.955,0,1,0,1.911,0V3.822h4.347v.955a.955.955,0,0,0,1.911,0V3.822h1.242a1.913,1.913,0,0,1,1.911,1.911v5.446a.955.955,0,1,0,1.911,0V5.733A3.826,3.826,0,0,0,20.638,1.911Z" fill="#f71735"/>
      <path id="Path_89" data-name="Path 89" d="M275.781,270a5.781,5.781,0,1,0,5.781,5.781A5.787,5.787,0,0,0,275.781,270Zm0,9.65a3.87,3.87,0,1,1,3.87-3.87A3.874,3.874,0,0,1,275.781,279.65Z" transform="translate(-257.101 -257.101)" fill="#f71735"/>
      <path id="Path_90" data-name="Path 90" d="M373.341,331.959h-.43v-1a.955.955,0,0,0-1.911,0v1.959a.955.955,0,0,0,.955.955h1.385a.955.955,0,1,0,0-1.911Z" transform="translate(-353.276 -314.235)" fill="#f71735"/>
      <ellipse id="Ellipse_3" data-name="Ellipse 3" cx="1" cy="0.5" rx="1" ry="0.5" transform="translate(13.46 9.46)" fill="#f71735"/>
      <ellipse id="Ellipse_4" data-name="Ellipse 4" cx="0.5" cy="1.5" rx="0.5" ry="1.5" transform="translate(9.46 12.46)" fill="#f71735"/>
      <ellipse id="Ellipse_5" data-name="Ellipse 5" cx="1" cy="0.5" rx="1" ry="0.5" transform="translate(5.46 9.46)" fill="#f71735"/>
      <ellipse id="Ellipse_6" data-name="Ellipse 6" cx="1" cy="1.5" rx="1" ry="1.5" transform="translate(5.46 12.46)" fill="#f71735"/>
      <circle id="Ellipse_7" data-name="Ellipse 7" cx="1" cy="1" r="1" transform="translate(5.46 17.46)" fill="#f71735"/>
      <ellipse id="Ellipse_8" data-name="Ellipse 8" cx="0.5" cy="1" rx="0.5" ry="1" transform="translate(9.46 17.46)" fill="#f71735"/>
      <circle id="Ellipse_9" data-name="Ellipse 9" cx="0.5" cy="0.5" r="0.5" transform="translate(9.46 9.46)" fill="#f71735"/>
    </g>
  </g>
</svg>
