<svg xmlns="http://www.w3.org/2000/svg" width="22.842" height="22.836" viewBox="0 0 22.842 22.836">
  <g id="key_3_" data-name="key (3)" transform="translate(0 -0.067)">
    <g id="Group_10" data-name="Group 10" transform="translate(14.28 5.908)">
      <g id="Group_9" data-name="Group 9" transform="translate(0 0)">
        <circle id="Ellipse_1" data-name="Ellipse 1" cx="1.5" cy="1.5" r="1.5" transform="translate(-0.44 0.126)" fill="#f71735"/>
      </g>
    </g>
    <g id="Group_12" data-name="Group 12" transform="translate(0 0.067)">
      <g id="Group_11" data-name="Group 11" transform="translate(0 0)">
        <path id="Path_81" data-name="Path 81" d="M22.6,7.467a13.017,13.017,0,0,0-2.807-4.413A12.716,12.716,0,0,0,15.408.3a3.587,3.587,0,0,0-3.805.807L8.1,4.6a3.57,3.57,0,0,0-.745,3.958c.184.414.384.818.6,1.209l-7.69,7.69A.892.892,0,0,0,0,18.084V22.01a.892.892,0,0,0,.892.892H4.818a.892.892,0,0,0,.892-.892V20.4H7.316a.892.892,0,0,0,.892-.892V17.906H9.815a.892.892,0,1,0,0-1.784h-2.5a.892.892,0,0,0-.892.892V18.62H4.818a.892.892,0,0,0-.892.892v1.606H1.784V18.454L9.7,10.542a.892.892,0,0,0,.132-1.094,14.439,14.439,0,0,1-.844-1.619,1.776,1.776,0,0,1,.373-1.968l3.5-3.487a1.8,1.8,0,0,1,1.909-.4A10.924,10.924,0,0,1,18.53,4.318a11.226,11.226,0,0,1,2.4,3.8,1.772,1.772,0,0,1-.4,1.9l-3.546,3.529a1.8,1.8,0,0,1-1.964.383,11.581,11.581,0,0,1-1.606-.819.892.892,0,0,0-.933,1.521,13.373,13.373,0,0,0,1.854.946,3.576,3.576,0,0,0,3.908-.766l3.546-3.529A3.555,3.555,0,0,0,22.6,7.467Z" transform="translate(0 -0.067)" fill="#f71735"/>
      </g>
    </g>
  </g>
</svg>
