<svg xmlns="http://www.w3.org/2000/svg" xmlns:xlink="http://www.w3.org/1999/xlink" width="348.605" height="159.366" viewBox="0 0 348.605 159.366">
  <defs>
    <clipPath id="clip-path">
      <path id="Polygon_5" data-name="Polygon 5" d="M102.226,0A30,30,0,0,1,128.19,14.972l22.477,38.834a30,30,0,0,1,0,30.057L128.19,122.7a30,30,0,0,1-25.964,14.972H57.14A30,30,0,0,1,31.176,122.7L8.7,83.862a30,30,0,0,1,0-30.057L31.176,14.972A30,30,0,0,1,57.14,0Z" transform="translate(137.668) rotate(90)" fill="#011627"/>
    </clipPath>
  </defs>
  <g id="Group_7" data-name="Group 7" transform="translate(3116.5 -328)">
    <g id="Group_4" data-name="Group 4" transform="translate(-3116.5 328)">
      <g id="Mask_Group_1" data-name="Mask Group 1" transform="translate(0 0)" clip-path="url(#clip-path)">
        <g id="Group_3" data-name="Group 3" transform="translate(-48.446 1.163)">
          <path id="Path_12" data-name="Path 12" d="M114.047,0a7.482,7.482,0,0,1,6.475,3.734l35.511,61.352a7.482,7.482,0,0,1,0,7.5l-35.511,61.352a7.482,7.482,0,0,1-6.475,3.734H42.993a7.482,7.482,0,0,1-6.475-3.734L1.006,72.582a7.482,7.482,0,0,1,0-7.5L36.517,3.734A7.482,7.482,0,0,1,42.993,0Z" transform="translate(186.114 0) rotate(90)" fill="#011627"/>
          <path id="Path_13" data-name="Path 13" d="M0,0H98.014V19.453H0Z" transform="translate(30.957 41.11)" fill="#8ec144"/>
          <path id="Path_14" data-name="Path 14" d="M0,0H98.014V19.453H0Z" transform="translate(30.957 60.563)" fill="#f7b516"/>
          <path id="Path_15" data-name="Path 15" d="M0,0H98.014V19.453H0Z" transform="translate(30.957 80.016)" fill="#f71735"/>
          <path id="Path_6" data-name="Path 6" d="M0,0H98.014L81.9,5.893l-23.04,13.56H0Z" transform="translate(30.957 99.469)" fill="#cc3894"/>
          <path id="Intersection_2" data-name="Intersection 2" d="M76.849,106.637a9.808,9.808,0,0,0-1.575-.767,7.3,7.3,0,0,1-1.269-.485,8.7,8.7,0,0,0-1.584-.554,2.1,2.1,0,0,1-1.55-.886c-.409-.553-.451-.817-.29-1.746.068-.417.145-1.064.171-1.447a4.988,4.988,0,0,1,.758-2.308c.221-.4.4-.622.493-.622a.281.281,0,0,0,.2-.076c.026-.051.145-.051.3.009a.771.771,0,0,0,.365.042,1.648,1.648,0,0,0,.3-.673,17,17,0,0,0,.783-3.312,4.852,4.852,0,0,1,.3-1.695,19.138,19.138,0,0,0,.511-2.171c.221-1.082.622-2.981.9-4.233.689-3.125.783-3.755.715-4.793a6.337,6.337,0,0,1,.085-1.7,9.855,9.855,0,0,1,.715-2.529,3.262,3.262,0,0,0,.29-.859,1.352,1.352,0,0,1,.374-.8c.229-.212.264-.34.434-1.388.238-1.439.238-1.575-.017-1.831a7.919,7.919,0,0,0-1.992-1.021,31.988,31.988,0,0,0-5.884-1.32A31.9,31.9,0,0,1,65.073,68.3c-.477-.162-1.363-.435-1.975-.588a13.185,13.185,0,0,1-3.466-1.49,5.521,5.521,0,0,0-.843-.417,9.722,9.722,0,0,0-1.949,1.617,31.97,31.97,0,0,1-2.853,2.427c-1.328,1-7.545,5.092-8.32,5.459a25.994,25.994,0,0,0-3.686,2.367,9.312,9.312,0,0,1-.9.689,3.382,3.382,0,0,0-.877.937,3.073,3.073,0,0,1-1.966,1.388c-.562.2-.733.23-.979.162a5.489,5.489,0,0,0-2.6.357c-.6.188-1.643.452-2.3.6-1.371.289-1.745.426-1.984.732-.145.179-.571.341-2.5.937a89.459,89.459,0,0,1-9.077,2.47,16.318,16.318,0,0,0-3.635,1.064,5.992,5.992,0,0,0-1.448.673c-.2.187-.307.221-.511.179-.34-.068-.7.059-2.222.817a12.922,12.922,0,0,1-1.9.783c-.588.137-.6.154-.6.409a2.425,2.425,0,0,0,.145.673c.137.418.137.418-.068.545a3.581,3.581,0,0,0-1.124,1.345,3.481,3.481,0,0,0-.315.741.874.874,0,0,0,.544.563c.077,0,.162-.1.187-.221.034-.145.094-.2.179-.17a.8.8,0,0,0,.2.05c.179,0,.059.427-.179.622a.5.5,0,0,1-.554.145c-.51-.111-.732-.4-.859-1.107l-.06-.383-.161.494a7.12,7.12,0,0,0-.2,1.175l-.025.285-.428-.248c.007-.122.017-.313.028-.514a3.977,3.977,0,0,1,.34-1.4,3.746,3.746,0,0,0,.273-.834c-.076-.076-.886.681-1.065,1a1.158,1.158,0,0,1-.426.418,1.23,1.23,0,0,0-.468.434c-.019.029-.041.059-.065.089l-.1-.061A40.028,40.028,0,0,1,.039,90.7l.132-.282a7.451,7.451,0,0,0,.9-4.036c.12-2.5.238-3.261.563-3.525a2.175,2.175,0,0,1,.511-.289c.153-.06.3-.162.323-.247.12-.357.29-.4,1.277-.323,1.09.085,1.422.178,1.857.527a3.457,3.457,0,0,0,1.762.528,1.646,1.646,0,0,1,.553.1.416.416,0,0,0,.256.06c.051-.017.5-.111,1.013-.2a4.064,4.064,0,0,0,1.235-.366,2.654,2.654,0,0,1,.775-.306,41.69,41.69,0,0,0,5.671-2.5,27.968,27.968,0,0,1,4.071-2,3.42,3.42,0,0,0,1.754-1.184c.374-.451.775-.689,2.724-1.626l1.916-.92.681-.009a7.835,7.835,0,0,0,2.563-.621A38.485,38.485,0,0,1,34.5,72.363a3.227,3.227,0,0,0,.783-.264,23.792,23.792,0,0,0,2.7-3.227c.809-1.116,1.346-1.924,2.819-4.249a17.331,17.331,0,0,1,3.134-3.918,12.47,12.47,0,0,1,2.426-2.111c1.158-.758,1.7-1.193,1.7-1.337a6.036,6.036,0,0,1,.4-.911,2.7,2.7,0,0,0,.409-1.737,3.836,3.836,0,0,1,.213-1.447c.1-.282.29-.835.418-1.235a8.527,8.527,0,0,1,1.2-2.384,13.763,13.763,0,0,0,.834-1.431,8.572,8.572,0,0,1,2.623-2.657,5.752,5.752,0,0,0,.97-.886c.043-.094.171-.485.282-.86s.391-1.192.613-1.814a4.238,4.238,0,0,0,.136-3.287,4.087,4.087,0,0,1-.221-1.4c.051-.349.017-.443-.238-.843a4.5,4.5,0,0,1-.485-1.149c-.153-.622-1.115-3.917-1.9-6.574l-.273-.928-.382-.111a9.033,9.033,0,0,0-1.448-.2c-3.039-.229-3.2-.247-3.875-.477-.758-.247-.681-.247-3.278.051-.818.094-1.84.17-2.265.17a2.275,2.275,0,0,0-1.516.332c-.179.162-.162.647.059,1.925.076.417.221,1.438.315,2.256a17.587,17.587,0,0,0,2.317,7.152A9.32,9.32,0,0,1,44.057,42.3a1.993,1.993,0,0,0,.5,1.243c.374.452.459.792.527,2.086a11.174,11.174,0,0,0,.153,1.456.854.854,0,0,1-.042.622,2.708,2.708,0,0,0,.741,2.52c.332.4.358.656.076.868l-.221.171-.5-.213a4.281,4.281,0,0,1-.817-.477c-.366-.306-.409-.255-.409.494,0,.443-.017.5-.213.588-.357.162-.877.128-1-.059-.094-.162-.111-.162-.383.085-.34.3-.348.3-.715.051a.569.569,0,0,1-.315-.554c-.034-.4-.137-.443-.469-.187-.238.2-.289.162-.613-.418l-.17-.306.229-.664a1.888,1.888,0,0,0,.179-.639c-.042.017-.213.1-.391.2l-.315.161-.256-.247a2.483,2.483,0,0,1-.554-1.4,11.17,11.17,0,0,1,.741-4,6.166,6.166,0,0,0,.273-1.149c.008-.4-.741-2.027-2.81-6.131-.715-1.4-1.49-3.015-1.721-3.577A26.91,26.91,0,0,1,34.1,28.075c-.145-.68-.324-1.447-.409-1.7a5.325,5.325,0,0,1-.221-.877l-.051-.426.784-.767a12.9,12.9,0,0,1,3.176-2.35A63.117,63.117,0,0,1,43.9,19.7a15.935,15.935,0,0,1,3.781-.145c1.976.043,2.069.017,3.338-.732a3.833,3.833,0,0,1,2.75-.835h1.149l.554-.306c1.065-.6,1.439-.758,1.771-.758a2.082,2.082,0,0,0,.733-.179.993.993,0,0,1,.476-.119c.051.025.162-.085.265-.247.153-.264.229-.306.579-.357s.435-.094.681-.46a4.274,4.274,0,0,0,.443-.928,2.513,2.513,0,0,0-.3-2.342c-.2-.29-.221-.418-.221-1.005a1.612,1.612,0,0,0-.639-1.524,2.2,2.2,0,0,1-.63-1.057,7.989,7.989,0,0,1-.349-2.12V6.182l-.655.06-.664.051-.282-.418a3.393,3.393,0,0,1,.068-3.943A3.675,3.675,0,0,1,58.959.154c.51-.137.707-.068,1.3.477.622.579.571.579,2.18-.043C63.063.35,63.71.111,63.889.068a4.991,4.991,0,0,1,2.486.256,4.109,4.109,0,0,0,1.107.264,1.011,1.011,0,0,1,1.1.46,2.174,2.174,0,0,0,.63.571A9.089,9.089,0,0,1,71.2,3.151a6.342,6.342,0,0,1,1.371,2.733c.247.75.536,1.508.63,1.695l.179.349-.179.315a1.611,1.611,0,0,0-.179.843A1.952,1.952,0,0,1,72.66,10.3c-.076.111-.034.34.256,1.243.2.6.357,1.124.357,1.158a2.115,2.115,0,0,1-.306.391.72.72,0,0,0-.265.792,5.622,5.622,0,0,0,.111.63c.043.145-.025.273-.289.536-.3.307-.341.391-.3.63s-.008.324-.519.826a1.953,1.953,0,0,0-.562.741c0,.435,1.183.868,2.367.868h.622l.443.477a9.691,9.691,0,0,1,2.392,3.951,4.949,4.949,0,0,0,.41,1.192c.664,1.4.808,2.086.536,2.554-.171.3-.162.468.085,1.328a24.864,24.864,0,0,0,2.027,4.283c.4.715.878,1.643,1.056,2.061.2.485.375.758.46.758.145,0,.468-.324.715-.724a9.722,9.722,0,0,1,.6-.809,18.949,18.949,0,0,0,2.3-4.5c.12-.452.29-1.073.383-1.38a6.571,6.571,0,0,0,.187-2.078c.017-1.481.017-1.516.221-1.652a7.255,7.255,0,0,0,1.464-1.473,2.224,2.224,0,0,1,.537-.579.658.658,0,0,1,.306.212c.256.265.349.265.6-.008a5.559,5.559,0,0,1,.8-.588c.528-.332.63-.366.895-.307.766.171,1.073.673.724,1.175-.128.179-.111.2.332.485.571.366.6.409.477.775-.094.273-.076.324.128.571a.671.671,0,0,1,.178.7.824.824,0,0,0,.162.733.555.555,0,0,1,.1.647,1.324,1.324,0,0,1-.443.638,6.811,6.811,0,0,0-.767.784,3.07,3.07,0,0,1-1.473,1.081.99.99,0,0,0-.613.5,14.521,14.521,0,0,0-1.609,4.862,11.744,11.744,0,0,1-1.184,3.823,17.34,17.34,0,0,1-2.256,3.5c-1.406,1.848-1.788,2.214-2.351,2.214a12.734,12.734,0,0,1-2.827-1.048c-.409-.247-.5-.366-1.031-1.336-.953-1.729-4.138-6.736-4.291-6.736a3.492,3.492,0,0,0-.452.868,4.884,4.884,0,0,1-.783,1.3c-.375.409-.4.477-.545,1.286a26.641,26.641,0,0,1-.979,3.831,6.839,6.839,0,0,1-1.354,2.282c-.706.775-.851,1.26-1.073,3.594a7.3,7.3,0,0,1-.673,3.031,1.35,1.35,0,0,0-.264.656,2.413,2.413,0,0,1-.681,1.49c-.477.6-.672,1.124-.468,1.252a3.705,3.705,0,0,0,.63.17,8.565,8.565,0,0,1,3.074,1.618,23.663,23.663,0,0,0,4.9,2.623,22.608,22.608,0,0,1,3.739,1.874c1.43.894,3.874,2.537,5.944,3.993a18.029,18.029,0,0,1,2.478,2.776c1.26,1.687,1.346,2.785.349,4.164a4.266,4.266,0,0,0-.886,1.813A21.29,21.29,0,0,1,85.441,76.6c-.392.749-.409.817-.281.962.1.119.12.238.076.519a16.047,16.047,0,0,1-1,2.947,15.546,15.546,0,0,0-.919,2.716,16.671,16.671,0,0,1-.724,1.583,17.848,17.848,0,0,0-1.2,2.956c-.256.817-.766,2.409-1.141,3.533a25.179,25.179,0,0,0-.766,2.682,2.986,2.986,0,0,1-.162.715,2.054,2.054,0,0,0-.136.6c-.034.281-.111.886-.179,1.336l-.119.826.51.681a4.348,4.348,0,0,0,.818.868c.374.23.451.435.553,1.431.085.911.247,1.268.655,1.447.153.068.273.162.273.213a2.627,2.627,0,0,0,.094.417c.076.273.153.349.571.554a2.19,2.19,0,0,1,.9.77l-5.14,2.975C77.756,107.146,77.337,106.914,76.849,106.637Z" transform="translate(64.141 36.398)" fill="#fefefe"/>
          <path id="Path_7" data-name="Path 7" d="M0,0H81.74" transform="translate(44.28 41.204)" fill="none" stroke="#fff" stroke-width="5"/>
          <line id="Line_6" data-name="Line 6" x2="81.74" transform="translate(39.28 60.657)" fill="none" stroke="#fff" stroke-width="5"/>
          <line id="Line_8" data-name="Line 8" x2="81.74" transform="translate(24.316 80.11)" fill="none" stroke="#fff" stroke-width="5"/>
          <line id="Line_7" data-name="Line 7" x2="81.74" transform="translate(36.662 99.75)" fill="none" stroke="#fff" stroke-width="5"/>
          <line id="Line_9" data-name="Line 9" x2="81.74" transform="translate(0 118.829)" fill="none" stroke="#fff" stroke-width="5"/>
        </g>
      </g>
      <path id="Path_8" data-name="Path 8" d="M0,0H45.288" transform="translate(30.841 52.093)" fill="none" stroke="#fff" stroke-linecap="round" stroke-width="4"/>
      <path id="Path_9" data-name="Path 9" d="M0,0H39.616" transform="translate(15.189 71.546)" fill="none" stroke="#fff" stroke-linecap="round" stroke-width="4"/>
      <path id="Path_10" data-name="Path 10" d="M0,0H47.067" transform="translate(18.026 90.999)" fill="none" stroke="#fff" stroke-linecap="round" stroke-width="4"/>
      <path id="Path_11" data-name="Path 11" d="M0,0H47.067" transform="translate(7.365 110.452)" fill="none" stroke="#fff" stroke-linecap="round" stroke-width="4"/>
    </g>
    <g id="Group_5" data-name="Group 5" transform="translate(-2972.8 387.074)">
      <path id="Path_16" data-name="Path 16" d="M22.542-19.948a.4.4,0,0,1-.455.455H19.847a1.99,1.99,0,0,1-.508-.053q-.193-.053-.4-.4L12.67-30.381h-.91q-.875,0-1.663-.018t-2.188-.088v10.293a.742.742,0,0,1-.175.49.565.565,0,0,1-.455.21H5.388a.565.565,0,0,1-.455-.21.742.742,0,0,1-.175-.49V-44.7a.7.7,0,0,1,.175-.543A1.313,1.313,0,0,1,5.6-45.47q.56-.07,1.313-.123t1.575-.088q.823-.035,1.663-.053t1.61-.018a18.49,18.49,0,0,1,3.868.385A8.917,8.917,0,0,1,18.744-44.1a6.172,6.172,0,0,1,2.066,2.311,7.637,7.637,0,0,1,.753,3.573v.245a8.118,8.118,0,0,1-.4,2.644,6.363,6.363,0,0,1-1.138,2.049,6.671,6.671,0,0,1-1.75,1.471,8.774,8.774,0,0,1-2.206.911l6.372,10.637A.511.511,0,0,1,22.542-19.948ZM18.411-38.206a3.92,3.92,0,0,0-1.68-3.654,9.737,9.737,0,0,0-4.971-1.019h-.945q-.525,0-1.068.018l-1.033.035q-.49.018-.805.053v9.627q1.155.035,2.206.053t1.645.018a15.914,15.914,0,0,0,2.853-.228A5.5,5.5,0,0,0,16.7-34.1a3.583,3.583,0,0,0,1.278-1.511,5.612,5.612,0,0,0,.438-2.354ZM41.272-19.913a.582.582,0,0,1-.088.315.383.383,0,0,1-.263.175,11.6,11.6,0,0,1-1.33.088q-.84.018-1.8.053t-1.943.035H34.1a8.781,8.781,0,0,1-5.584-1.505q-1.873-1.505-1.873-5.006V-39.238q0-3.5,1.873-5.006A8.781,8.781,0,0,1,34.1-45.75q.77,0,1.733.018l1.908.035q.945.018,1.785.053t1.4.105a.383.383,0,0,1,.263.175.582.582,0,0,1,.088.315v1.75q0,.42-.385.42H34.13a10.423,10.423,0,0,0-2.241.193,2.7,2.7,0,0,0-1.3.63,2.2,2.2,0,0,0-.613,1.12,7.707,7.707,0,0,0-.158,1.7v4.866H40.572a.676.676,0,0,1,.49.207.659.659,0,0,1,.21.484v1.313a.659.659,0,0,1-.21.484.676.676,0,0,1-.49.207H29.824v5.9a7.816,7.816,0,0,0,.158,1.686,2.215,2.215,0,0,0,.613,1.142,2.7,2.7,0,0,0,1.3.632,10.38,10.38,0,0,0,2.241.193h6.757q.385,0,.385.42Zm25.872-.28a.676.676,0,0,1-.208.49.661.661,0,0,1-.485.21h-1.7a.661.661,0,0,1-.485-.21.676.676,0,0,1-.208-.49v-20.76q0-.105-.035-.105t-.07.07l-5.03,10.363a2.387,2.387,0,0,1-.6.77,1.607,1.607,0,0,1-.985.245H55.727a1.607,1.607,0,0,1-.985-.245,2.387,2.387,0,0,1-.6-.77l-5.03-10.363q-.035-.07-.07-.07t-.035.105v20.76a.676.676,0,0,1-.208.49.661.661,0,0,1-.485.21h-1.7a.661.661,0,0,1-.485-.21.676.676,0,0,1-.208-.49v-24.3a.984.984,0,0,1,.294-.718.962.962,0,0,1,.71-.3h2.252a1.6,1.6,0,0,1,.721.123,1.042,1.042,0,0,1,.4.473l5.8,12.008q.176.385.422.385t.422-.385l5.8-12.008a1.042,1.042,0,0,1,.4-.473,1.6,1.6,0,0,1,.721-.123h2.252a.962.962,0,0,1,.71.3.984.984,0,0,1,.294.718ZM90.88-30.241a15.732,15.732,0,0,1-.7,4.989,9.09,9.09,0,0,1-1.96,3.413,7.684,7.684,0,0,1-2.993,1.96,11.039,11.039,0,0,1-3.8.63,11.039,11.039,0,0,1-3.8-.63,7.684,7.684,0,0,1-2.993-1.96,9.274,9.274,0,0,1-1.978-3.413,15.376,15.376,0,0,1-.718-4.989v-4.516a15.377,15.377,0,0,1,.718-4.989,9.274,9.274,0,0,1,1.978-3.413,7.684,7.684,0,0,1,2.993-1.96,11.039,11.039,0,0,1,3.8-.63,11.039,11.039,0,0,1,3.8.63,7.684,7.684,0,0,1,2.993,1.96,9.09,9.09,0,0,1,1.96,3.413,15.732,15.732,0,0,1,.7,4.989Zm-3.256-4.516a13.943,13.943,0,0,0-.435-3.746,6.9,6.9,0,0,0-1.236-2.521A4.6,4.6,0,0,0,84-42.442a7.189,7.189,0,0,0-2.576-.438,7.192,7.192,0,0,0-2.576.438,4.718,4.718,0,0,0-1.967,1.418A6.741,6.741,0,0,0,75.631-38.5a13.943,13.943,0,0,0-.435,3.746v4.516a13.943,13.943,0,0,0,.435,3.746,6.741,6.741,0,0,0,1.253,2.521,4.718,4.718,0,0,0,1.967,1.418,7.192,7.192,0,0,0,2.576.438A7.189,7.189,0,0,0,84-22.557a4.6,4.6,0,0,0,1.95-1.418A6.9,6.9,0,0,0,87.189-26.5a13.943,13.943,0,0,0,.435-3.746Zm24.786-8.605q0,.553-.665.553h-6.827v22.615a.744.744,0,0,1-.175.491.564.564,0,0,1-.455.21h-1.925a.564.564,0,0,1-.455-.21.744.744,0,0,1-.175-.491V-42.809H94.906a.872.872,0,0,1-.49-.138.463.463,0,0,1-.21-.415v-1.521a.554.554,0,0,1,.21-.449.748.748,0,0,1,.49-.173h16.839q.665,0,.665.622ZM131-19.913a.582.582,0,0,1-.088.315.383.383,0,0,1-.263.175,11.6,11.6,0,0,1-1.33.088q-.84.018-1.8.053t-1.943.035h-1.75a8.781,8.781,0,0,1-5.584-1.505q-1.873-1.505-1.873-5.006V-39.238q0-3.5,1.873-5.006a8.781,8.781,0,0,1,5.584-1.505q.77,0,1.733.018l1.908.035q.945.018,1.785.053t1.4.105a.383.383,0,0,1,.263.175.582.582,0,0,1,.088.315v1.75q0,.42-.385.42h-6.757a10.423,10.423,0,0,0-2.241.193,2.7,2.7,0,0,0-1.3.63,2.2,2.2,0,0,0-.613,1.12,7.707,7.707,0,0,0-.158,1.7v4.866H130.3a.676.676,0,0,1,.49.207.659.659,0,0,1,.21.484v1.313a.659.659,0,0,1-.21.484.676.676,0,0,1-.49.207H119.552v5.9a7.816,7.816,0,0,0,.158,1.686,2.215,2.215,0,0,0,.613,1.142,2.7,2.7,0,0,0,1.3.632,10.38,10.38,0,0,0,2.241.193h6.757q.385,0,.385.42Z" transform="translate(-4.758 45.75)" fill="#011627"/>
      <path id="Path_17" data-name="Path 17" d="M14-30q0,.381-.458.381h-4.7v15.571a.512.512,0,0,1-.121.338.388.388,0,0,1-.313.145H7.086a.388.388,0,0,1-.313-.145.512.512,0,0,1-.121-.338V-29.618h-4.7a.6.6,0,0,1-.337-.1A.319.319,0,0,1,1.47-30v-1.047a.382.382,0,0,1,.145-.309.515.515,0,0,1,.337-.119H13.546q.458,0,.458.428Zm8.437,4.449q0,.415-.506.415a5.783,5.783,0,0,0-1.627.228,7.294,7.294,0,0,0-1.7.782v10.079a.461.461,0,0,1-.145.337.463.463,0,0,1-.337.144H16.945a.424.424,0,0,1-.325-.145.484.484,0,0,1-.133-.337V-26.34a.484.484,0,0,1,.133-.337.424.424,0,0,1,.325-.145h1.133a.421.421,0,0,1,.325.147.5.5,0,0,1,.133.343v.514a6.758,6.758,0,0,1,1.748-.9,5.349,5.349,0,0,1,1.651-.269q.506,0,.506.44Zm11.522,11.5a.462.462,0,0,1-.145.337.463.463,0,0,1-.337.145H32.372a.463.463,0,0,1-.337-.145.463.463,0,0,1-.145-.337v-.53a11.264,11.264,0,0,1-1.784.844,5.533,5.533,0,0,1-1.928.337,5.994,5.994,0,0,1-1.482-.181,3.1,3.1,0,0,1-1.253-.639,3.235,3.235,0,0,1-.868-1.205,4.726,4.726,0,0,1-.325-1.88v-.289a4.433,4.433,0,0,1,.3-1.711,2.824,2.824,0,0,1,.988-1.217,4.8,4.8,0,0,1,1.8-.735,13.064,13.064,0,0,1,2.724-.241h1.784v-.964a3.046,3.046,0,0,0-.579-2.121,2.707,2.707,0,0,0-2-.6q-1.181,0-2.073.06t-1.615.133h-.121a.619.619,0,0,1-.3-.072q-.133-.072-.133-.313v-.844q0-.386.506-.458.747-.121,1.627-.217a19.733,19.733,0,0,1,2.109-.1,4.7,4.7,0,0,1,3.6,1.193,4.75,4.75,0,0,1,1.1,3.338Zm-2.121-5.93H30.058a10.278,10.278,0,0,0-1.808.133,2.991,2.991,0,0,0-1.133.41,1.5,1.5,0,0,0-.579.723,3.116,3.116,0,0,0-.169,1.1v.289a2.118,2.118,0,0,0,.579,1.748,2.635,2.635,0,0,0,1.639.446,5.383,5.383,0,0,0,1.615-.241,8.835,8.835,0,0,0,1.639-.723Zm7.834-9.449a.463.463,0,0,1-.145.337.462.462,0,0,1-.337.145H37.964a.463.463,0,0,1-.337-.145.463.463,0,0,1-.145-.337v-1.928a.463.463,0,0,1,.145-.337.463.463,0,0,1,.337-.145h1.229a.463.463,0,0,1,.337.145.462.462,0,0,1,.145.337Zm-.048,15.379a.463.463,0,0,1-.145.337.463.463,0,0,1-.337.145H37.988a.463.463,0,0,1-.337-.145.462.462,0,0,1-.145-.337V-26.34a.462.462,0,0,1,.145-.337.463.463,0,0,1,.337-.145h1.157a.463.463,0,0,1,.337.145.463.463,0,0,1,.145.337Zm13.715,0a.463.463,0,0,1-.145.337.463.463,0,0,1-.337.145H51.7a.463.463,0,0,1-.337-.144.461.461,0,0,1-.145-.337V-21.96a6.289,6.289,0,0,0-.157-1.527,2.266,2.266,0,0,0-.482-.974,1.818,1.818,0,0,0-.82-.517,3.987,3.987,0,0,0-1.193-.156,5.166,5.166,0,0,0-1.591.265,12.908,12.908,0,0,0-1.663.674v10.151a.461.461,0,0,1-.145.337.463.463,0,0,1-.337.144H43.653a.424.424,0,0,1-.325-.145.484.484,0,0,1-.133-.337V-26.34a.484.484,0,0,1,.133-.337.424.424,0,0,1,.325-.145h1.205a.421.421,0,0,1,.325.147.5.5,0,0,1,.133.343v.465a10.738,10.738,0,0,1,1.88-.843,6.326,6.326,0,0,1,1.952-.281,3.774,3.774,0,0,1,3.194,1.3,5.986,5.986,0,0,1,1,3.712Zm13.5-6q0,.53-.458.53H58.308v.337a4.372,4.372,0,0,0,.844,3.037,3.291,3.291,0,0,0,2.507.892q1.061,0,2.254-.072t2.037-.193h.121a.506.506,0,0,1,.265.072.283.283,0,0,1,.121.265v.82a.627.627,0,0,1-.1.374.579.579,0,0,1-.386.181q-1.037.193-2.061.3a21.51,21.51,0,0,1-2.254.108,7.462,7.462,0,0,1-2.025-.277,4.449,4.449,0,0,1-1.748-.94,4.778,4.778,0,0,1-1.229-1.772,7.2,7.2,0,0,1-.47-2.8v-2.169a5.914,5.914,0,0,1,1.374-4.122,5.089,5.089,0,0,1,3.977-1.519,6.174,6.174,0,0,1,2.314.4A4.392,4.392,0,0,1,65.5-25.46a4.835,4.835,0,0,1,1,1.784,7.565,7.565,0,0,1,.337,2.326Zm-2.121-1.3a4.314,4.314,0,0,0-.786-2.917,3.058,3.058,0,0,0-2.383-.868,3.092,3.092,0,0,0-2.407.916,4.164,4.164,0,0,0-.835,2.868v.217H64.72Zm10.968-4.2q0,.415-.506.415a5.783,5.783,0,0,0-1.627.228,7.294,7.294,0,0,0-1.7.782v10.079a.461.461,0,0,1-.145.337.463.463,0,0,1-.337.144H70.192a.424.424,0,0,1-.325-.145.484.484,0,0,1-.133-.337V-26.34a.484.484,0,0,1,.133-.337.424.424,0,0,1,.325-.145h1.133a.421.421,0,0,1,.325.147.5.5,0,0,1,.133.343v.514a6.758,6.758,0,0,1,1.748-.9,5.349,5.349,0,0,1,1.651-.269q.506,0,.506.44Z" transform="translate(129.217 39.821)" fill="#f71735"/>
      <path id="Path_18" data-name="Path 18" d="M8.132-16.009H4.8v8.818H4.11v-8.818H.817V-16.7H8.132ZM18.538-7.191h-.764l-.947-2.528a6.22,6.22,0,0,0-.308-.686,2.519,2.519,0,0,0-.4-.56,1.736,1.736,0,0,0-.517-.378,1.567,1.567,0,0,0-.682-.139H11.6v4.291H10.9V-16.7h4.283a6.083,6.083,0,0,1,1.16.109,2.866,2.866,0,0,1,1,.387,2,2,0,0,1,.7.769,2.665,2.665,0,0,1,.261,1.255,3.245,3.245,0,0,1-.117.89,2.3,2.3,0,0,1-.356.738,2.161,2.161,0,0,1-.608.556,2.653,2.653,0,0,1-.864.334,3.473,3.473,0,0,1,.443.4,2.385,2.385,0,0,1,.3.408,3.318,3.318,0,0,1,.226.478l.23.6ZM11.6-12.178h3.3a6.046,6.046,0,0,0,1.208-.1,2.11,2.11,0,0,0,.83-.343,1.422,1.422,0,0,0,.482-.621,2.483,2.483,0,0,0,.156-.938,1.571,1.571,0,0,0-.621-1.4,3.322,3.322,0,0,0-1.855-.421H11.6ZM28.606-7.191H21.734V-16.7h6.637v.695H22.429v3.518H28v.695H22.429v3.909h6.177Zm10.528,0h-.912l-5.8-8.687v8.687h-.695V-16.7h.956l5.76,8.67V-16.7h.695Zm10.363,0H42.625V-16.7h6.637v.695H43.32v3.518h5.568v.695H43.32v3.909H49.5Zm10.823,0h-.764l-.947-2.528a6.221,6.221,0,0,0-.308-.686,2.519,2.519,0,0,0-.4-.56,1.736,1.736,0,0,0-.517-.378,1.567,1.567,0,0,0-.682-.139H53.378v4.291h-.695V-16.7h4.283a6.083,6.083,0,0,1,1.16.109,2.866,2.866,0,0,1,1,.387,2,2,0,0,1,.7.769,2.665,2.665,0,0,1,.261,1.255,3.246,3.246,0,0,1-.117.89,2.3,2.3,0,0,1-.356.738A2.161,2.161,0,0,1,59-12a2.653,2.653,0,0,1-.864.334,3.473,3.473,0,0,1,.443.4,2.385,2.385,0,0,1,.3.408,3.318,3.318,0,0,1,.226.478l.23.6Zm-6.941-4.986h3.3a6.046,6.046,0,0,0,1.208-.1,2.11,2.11,0,0,0,.83-.343,1.422,1.422,0,0,0,.482-.621,2.483,2.483,0,0,0,.156-.938,1.571,1.571,0,0,0-.621-1.4,3.322,3.322,0,0,0-1.855-.421h-3.5ZM79.725-7.191h-.912l-5.8-8.687v8.687h-.695V-16.7h.956l5.76,8.67V-16.7h.695Zm11.006,0H89.9l-1.164-3.058H84.05q-.252.721-.547,1.525t-.565,1.533H82.2q.469-1.234.925-2.415l.908-2.35.908-2.35q.456-1.181.925-2.406h.982Zm-2.2-3.605-2.207-5.291L84.232-10.8Zm12.422-1.225q0,4.83-4.8,4.83H93.274v-9.5H96.15a5,5,0,0,1,3.605,1.16A4.682,4.682,0,0,1,100.954-12.021Zm-.738,0a6.857,6.857,0,0,0-.187-1.677,2.885,2.885,0,0,0-.656-1.255,2.942,2.942,0,0,0-1.255-.786,6.212,6.212,0,0,0-1.985-.269H93.969v8.123h2.163a6,6,0,0,0,1.976-.278,2.929,2.929,0,0,0,1.255-.812,3.056,3.056,0,0,0,.66-1.3A7.227,7.227,0,0,0,100.216-12.021Zm7.9-4.856a4.587,4.587,0,0,1,1.8.347,4.055,4.055,0,0,1,1.42.99,4.593,4.593,0,0,1,.93,1.546,5.77,5.77,0,0,1,.334,2.015,5.885,5.885,0,0,1-.33,2.015,4.667,4.667,0,0,1-.925,1.568,4.134,4.134,0,0,1-1.416,1.016,4.456,4.456,0,0,1-1.811.361,4.487,4.487,0,0,1-1.816-.361,4.15,4.15,0,0,1-1.42-1.012,4.618,4.618,0,0,1-.925-1.564,5.912,5.912,0,0,1-.33-2.024A5.8,5.8,0,0,1,103.963-14a4.508,4.508,0,0,1,.934-1.542,4.137,4.137,0,0,1,1.42-.986A4.578,4.578,0,0,1,108.12-16.877Zm-.009,9.165a3.945,3.945,0,0,0,1.507-.282,3.3,3.3,0,0,0,1.194-.83,3.809,3.809,0,0,0,.782-1.342,5.471,5.471,0,0,0,.278-1.811,5.308,5.308,0,0,0-.282-1.807,3.777,3.777,0,0,0-.782-1.316,3.26,3.26,0,0,0-1.181-.808,3.965,3.965,0,0,0-1.49-.274,4.024,4.024,0,0,0-1.516.278,3.331,3.331,0,0,0-1.194.812,3.741,3.741,0,0,0-.786,1.316,5.28,5.28,0,0,0-.282,1.8,5.471,5.471,0,0,0,.278,1.811,3.845,3.845,0,0,0,.778,1.342,3.263,3.263,0,0,0,1.19.83A3.945,3.945,0,0,0,108.111-7.712Zm14.828.521h-.7v-4.735h-5.864v4.735h-.695V-16.7h.695v4.083h5.864V-16.7h.7Zm10.98-9.512-3.727,9.512H129.3L125.57-16.7h.773l3.405,8.644,3.405-8.644ZM144.09-7.191h-.834l-1.164-3.058H137.41q-.252.721-.547,1.525T136.3-7.191h-.738q.469-1.234.925-2.415l.908-2.35.908-2.35q.456-1.181.925-2.406h.982Zm-2.2-3.605-2.207-5.291L137.592-10.8Zm11.292-5.212h-3.327v8.818h-.695v-8.818H145.87V-16.7h7.315Zm19.292,8.818h-.764l-.947-2.528a6.221,6.221,0,0,0-.308-.686,2.518,2.518,0,0,0-.4-.56,1.736,1.736,0,0,0-.517-.378,1.567,1.567,0,0,0-.682-.139h-3.327v4.291h-.695V-16.7h4.283a6.083,6.083,0,0,1,1.16.109,2.866,2.866,0,0,1,1,.387,2,2,0,0,1,.7.769,2.665,2.665,0,0,1,.261,1.255,3.245,3.245,0,0,1-.117.89,2.3,2.3,0,0,1-.356.738,2.161,2.161,0,0,1-.608.556,2.652,2.652,0,0,1-.864.334,3.473,3.473,0,0,1,.443.4,2.385,2.385,0,0,1,.3.408,3.316,3.316,0,0,1,.226.478l.23.6Zm-6.941-4.986h3.3a6.046,6.046,0,0,0,1.208-.1,2.109,2.109,0,0,0,.83-.343,1.422,1.422,0,0,0,.482-.621,2.483,2.483,0,0,0,.156-.938,1.571,1.571,0,0,0-.621-1.4,3.322,3.322,0,0,0-1.855-.421h-3.5ZM179.3-7.017A5.191,5.191,0,0,1,177.84-7.2a3.083,3.083,0,0,1-1-.482,2.385,2.385,0,0,1-.634-.712,3.563,3.563,0,0,1-.356-.869,4.911,4.911,0,0,1-.152-.956q-.03-.5-.03-.964V-16.7h.695v5.5a6.583,6.583,0,0,0,.2,1.768,2.439,2.439,0,0,0,.573,1.064,1.947,1.947,0,0,0,.921.521,5.048,5.048,0,0,0,1.247.139,5.194,5.194,0,0,0,1.264-.139,1.878,1.878,0,0,0,.921-.526,2.491,2.491,0,0,0,.56-1.064,6.674,6.674,0,0,0,.191-1.764v-5.5h.695v5.525a8.446,8.446,0,0,1-.165,1.755,3.232,3.232,0,0,1-.573,1.307,2.563,2.563,0,0,1-1.112.817A4.823,4.823,0,0,1,179.3-7.017Zm14.533-.174h-.93l-3.8-5.195-1.937,1.876v3.319h-.695V-16.7h.695v5.23l5.395-5.23h.964l-3.918,3.8Zm9.607,0h-6.872V-16.7H203.2v.695h-5.942v3.518h5.568v.695h-5.568v3.909h6.177Z" transform="translate(-0.209 54.109)" fill="#011627"/>
    </g>
  </g>
</svg>
