<svg xmlns="http://www.w3.org/2000/svg" width="26.825" height="25.211" viewBox="0 0 26.825 25.211">
  <g id="paperclip" transform="translate(26.825) rotate(90)">
    <g id="Group_30" data-name="Group 30">
      <path id="Path_91" data-name="Path 91" d="M.33,9.769a1.118,1.118,0,0,1,1.581,0L15.346,23.282a4.471,4.471,0,0,0,6.321-6.325L7.833,3.051A2.794,2.794,0,0,0,3.884,7.005l11.46,11.46,0,0a1.117,1.117,0,0,0,1.578-1.582l-5.532-5.533a1.118,1.118,0,0,1,1.581-1.581L18.5,15.3a3.353,3.353,0,0,1-4.742,4.742l0,0L2.3,8.586A5.03,5.03,0,0,1,9.416,1.472L23.25,15.379a6.706,6.706,0,0,1-9.486,9.482L.325,11.35A1.118,1.118,0,0,1,.33,9.769Z" transform="translate(0 0)" fill="#f71735"/>
    </g>
  </g>
</svg>
